<svg viewBox="0 0 287 78" fill="none" xmlns="http://www.w3.org/2000/svg">
<g clip-path="url(#clip0_1_3)">
<path d="M17.5153 78C13.3754 78 10.0087 74.6146 10.0087 70.4516C10.0087 66.2887 13.3754 62.9032 17.5153 62.9032C21.6551 62.9032 25.0218 66.2887 25.0218 70.4516C25.0218 74.6146 21.6551 78 17.5153 78ZM17.5153 64.1613C14.066 64.1613 11.2598 66.9831 11.2598 70.4516C11.2598 73.9201 14.066 76.7419 17.5153 76.7419C20.9645 76.7419 23.7707 73.9201 23.7707 70.4516C23.7707 66.9831 20.9645 64.1613 17.5153 64.1613Z" fill="#008080"/>
<path d="M61.3034 78C57.1635 78 53.7969 74.6146 53.7969 70.4516C53.7969 66.2887 57.1635 62.9032 61.3034 62.9032C65.4433 62.9032 68.8099 66.2887 68.8099 70.4516C68.8099 74.6146 65.4433 78 61.3034 78ZM61.3034 64.1613C57.8541 64.1613 55.0479 66.9831 55.0479 70.4516C55.0479 73.9201 57.8541 76.7419 61.3034 76.7419C64.7527 76.7419 67.5588 73.9201 67.5588 70.4516C67.5588 66.9831 64.7527 64.1613 61.3034 64.1613Z" fill="#008080"/>
<path d="M54.6826 72.9677H24.136C23.7907 72.9677 23.5105 72.6859 23.5105 72.3387C23.5105 71.9915 23.7907 71.7097 24.136 71.7097H54.6826C55.0279 71.7097 55.3082 71.9915 55.3082 72.3387C55.3082 72.6859 55.0279 72.9677 54.6826 72.9677Z" fill="#008080"/>
<path d="M54.6826 69.1936H24.136C23.7907 69.1936 23.5105 68.9117 23.5105 68.5645C23.5105 68.2173 23.7907 67.9355 24.136 67.9355H54.6826C55.0279 67.9355 55.3082 68.2173 55.3082 68.5645C55.3082 68.9117 55.0279 69.1936 54.6826 69.1936Z" fill="#008080"/>
<path d="M69.4367 69.1936H67.9242C67.5789 69.1936 67.2986 68.9117 67.2986 68.5645C67.2986 68.2173 67.5789 67.9355 67.9242 67.9355H69.4367C71.1607 67.9355 72.5632 66.5252 72.5632 64.7916V61.0149C72.5632 59.2813 71.1607 57.871 69.4367 57.871H41.9115C41.5662 57.871 41.286 57.5892 41.286 57.2419C41.286 56.8947 41.5662 56.6129 41.9115 56.6129H69.4367C71.8513 56.6129 73.8143 58.5868 73.8143 61.0149V64.7916C73.8143 67.2196 71.8513 69.1936 69.4367 69.1936Z" fill="#008080"/>
<path d="M69.4355 72.9677H67.9242C67.5789 72.9677 67.2986 72.6859 67.2986 72.3387C67.2986 71.9915 67.5789 71.7097 67.9242 71.7097H69.4355C73.2288 71.7097 76.3165 68.6048 76.3165 64.7903V61.0161C76.3165 57.2017 73.2288 54.0968 69.4355 54.0968H18.1471C15.7287 54.0968 13.762 52.1191 13.762 49.6873V8.17616C13.762 4.36171 10.6755 1.25806 6.88224 1.25806H2.50218C1.81158 1.25806 1.25109 1.82168 1.25109 2.51613C1.25109 3.21058 1.81158 3.77419 2.50218 3.77419H6.87474C9.29309 3.77419 11.2598 5.75187 11.2598 8.18371V49.6948C11.2598 53.5093 14.3462 56.6129 18.1396 56.6129H25.6473C25.9926 56.6129 26.2729 56.8947 26.2729 57.2419C26.2729 57.5892 25.9926 57.871 25.6473 57.871H18.1396C13.6556 57.871 10.0087 54.2037 10.0087 49.6948V8.18371C10.0087 6.44632 8.60249 5.03226 6.87474 5.03226H2.50218C1.12223 5.03226 0 3.90377 0 2.51613C0 1.12848 1.12223 0 2.50218 0H6.88224C11.3662 0 15.0131 3.66726 15.0131 8.17616V49.6873C15.0131 51.4246 16.4193 52.8387 18.1471 52.8387H69.4355C73.9194 52.8387 77.5676 56.5072 77.5676 61.0161V64.7903C77.5676 69.2992 73.9194 72.9677 69.4355 72.9677Z" fill="#008080"/>
<path d="M75.0654 13.8387H14.3875C14.0422 13.8387 13.762 13.5569 13.762 13.2097V9.43549C13.762 9.08826 14.0422 8.80646 14.3875 8.80646H75.0654C76.4453 8.80646 77.5676 9.93494 77.5676 11.3226C77.5676 12.7102 76.4453 13.8387 75.0654 13.8387ZM15.0131 12.5807H75.0654C75.756 12.5807 76.3165 12.017 76.3165 11.3226C76.3165 10.6281 75.756 10.0645 75.0654 10.0645H15.0131V12.5807Z" fill="#008080"/>
<path d="M60.6779 54.0968C60.6103 54.0968 60.5427 54.0854 60.4752 54.0628C60.1474 53.9496 59.9747 53.5923 60.0861 53.2639L73.5641 13.8387H14.3875C14.0422 13.8387 13.762 13.5569 13.762 13.2097C13.762 12.8624 14.0422 12.5806 14.3875 12.5806H74.4398C74.6413 12.5806 74.8314 12.6788 74.949 12.8448C75.0666 13.0096 75.0967 13.2223 75.0304 13.4135L61.2684 53.6715C61.1795 53.9332 60.9381 54.0968 60.6779 54.0968Z" fill="#008080"/>
<path d="M61.9289 31.4516H21.8941C20.8594 31.4516 20.0174 30.6049 20.0174 29.5645C20.0174 28.5241 20.8594 27.6774 21.8941 27.6774H61.9289C62.9636 27.6774 63.8056 28.5241 63.8056 29.5645C63.8056 30.6049 62.9636 31.4516 61.9289 31.4516ZM21.8941 28.9355C21.55 28.9355 21.2685 29.2186 21.2685 29.5645C21.2685 29.9105 21.55 30.1936 21.8941 30.1936H61.9289C62.273 30.1936 62.5545 29.9105 62.5545 29.5645C62.5545 29.2186 62.273 28.9355 61.9289 28.9355H21.8941Z" fill="#008080"/>
<path d="M59.4268 39H21.8941C20.8594 39 20.0174 38.1533 20.0174 37.1129C20.0174 36.0725 20.8594 35.2258 21.8941 35.2258H59.4268C60.4614 35.2258 61.3034 36.0725 61.3034 37.1129C61.3034 38.1533 60.4614 39 59.4268 39ZM21.8941 36.4839C21.55 36.4839 21.2685 36.7669 21.2685 37.1129C21.2685 37.4589 21.55 37.7419 21.8941 37.7419H59.4268C59.7708 37.7419 60.0523 37.4589 60.0523 37.1129C60.0523 36.7669 59.7708 36.4839 59.4268 36.4839H21.8941Z" fill="#008080"/>
<path d="M17.5153 72.9677C16.1353 72.9677 15.0131 71.8393 15.0131 70.4516C15.0131 69.064 16.1353 67.9355 17.5153 67.9355C18.8952 67.9355 20.0174 69.064 20.0174 70.4516C20.0174 71.8393 18.8952 72.9677 17.5153 72.9677ZM17.5153 69.1936C16.8247 69.1936 16.2642 69.7572 16.2642 70.4516C16.2642 71.1461 16.8247 71.7097 17.5153 71.7097C18.2059 71.7097 18.7663 71.1461 18.7663 70.4516C18.7663 69.7572 18.2059 69.1936 17.5153 69.1936Z" fill="#008080"/>
<path d="M61.3034 72.9677C59.9235 72.9677 58.8012 71.8393 58.8012 70.4516C58.8012 69.064 59.9235 67.9355 61.3034 67.9355C62.6834 67.9355 63.8056 69.064 63.8056 70.4516C63.8056 71.8393 62.6834 72.9677 61.3034 72.9677ZM61.3034 69.1936C60.6128 69.1936 60.0523 69.7572 60.0523 70.4516C60.0523 71.1461 60.6128 71.7097 61.3034 71.7097C61.994 71.7097 62.5545 71.1461 62.5545 70.4516C62.5545 69.7572 61.994 69.1936 61.3034 69.1936Z" fill="#008080"/>
<path d="M35.6561 57.871H29.4006C29.0553 57.871 28.7751 57.5892 28.7751 57.2419C28.7751 56.8947 29.0553 56.6129 29.4006 56.6129H35.6561C36.0014 56.6129 36.2816 56.8947 36.2816 57.2419C36.2816 57.5892 36.0014 57.871 35.6561 57.871Z" fill="#008080"/>
<path d="M119.473 7.02H123.284L109.945 43.6389H106.421L93.0811 7.02H96.8401L108.17 38.8878L119.473 7.02ZM135.99 43.6389V7.02H139.618V43.6389H135.99ZM160.181 40.2789H173.233V43.6389H156.553V7.02H160.181L160.181 40.2789ZM197.894 44.1377C190.585 44.1377 184.998 39.4127 184.998 31.7475V7.02039H188.627V31.2233C188.627 37.5234 192.647 40.7521 197.894 40.7521C203.115 40.7521 207.239 37.497 207.239 31.2233V7.02039H210.842V31.7475C210.842 39.4125 205.229 44.1377 197.894 44.1377ZM222.712 43.6389L236.913 24.5029L223.443 7.02H227.829L239.08 21.9829L250.279 7.02H254.665L241.195 24.5029L255.396 43.6389H250.827L239.08 27.2057L227.281 43.6389H222.712ZM287 10.38H271.755V23.6888H285.148V27.0226H271.755V40.279H287V43.639H267.995V7.02014H287V10.38Z" fill="#008080"/>
<path d="M96.8202 69.6563C94.8529 69.6563 93.3807 68.713 93.0811 67.0623L94.6835 66.689C94.8529 67.7633 95.7323 68.3528 96.8787 68.3528C97.7842 68.3528 98.605 67.9663 98.592 66.9838C98.5789 65.9619 97.452 65.6671 96.2338 65.32C94.8268 64.9073 93.3807 64.4356 93.3807 62.7194C93.3807 60.977 94.8008 60.06 96.5661 60.06C98.1946 60.06 99.7385 60.7478 100.097 62.4247L98.592 62.8046C98.3835 61.8089 97.6149 61.3701 96.6443 61.3701C95.7779 61.3701 94.9571 61.7434 94.9571 62.6933C94.9571 63.5579 95.9407 63.8265 97.0677 64.1409C98.5203 64.547 100.201 65.0449 100.201 66.9182C100.201 68.8506 98.592 69.6563 96.8202 69.6563ZM110.774 60.1909V61.5861H108.481V69.5319H106.931V61.5861H104.631V60.1909H110.774ZM122.422 60.1909L119.367 65.0709V69.5317H117.803V65.0905L114.735 60.1909H116.481L118.578 63.6822L120.682 60.1909H122.422ZM128.956 68.1301H132.024V69.5318H127.399V60.1909H128.956V68.1301ZM142.311 61.586H138.702V64.1734H141.894V65.5555H138.702V68.1298H142.311V69.5316H137.125V60.1906H142.311V61.586ZM148.708 71.9228H147.627L148.434 67.7502H149.985L148.708 71.9228ZM165.854 69.6563C163.881 69.6563 162.343 68.5493 162.343 66.3484V60.191H163.907V66.1322C163.907 67.6191 164.76 68.2546 165.854 68.2546C166.949 68.2546 167.815 67.6126 167.815 66.1322V60.191H169.372V66.3484C169.372 68.5494 167.835 69.6563 165.854 69.6563ZM181.574 60.1909H183.13V69.5318H181.385L176.825 62.405V69.5318H175.281V60.1909H177.007L181.574 67.2721V60.1909ZM195.052 60.1909H196.706L193.28 69.5318H191.606L188.199 60.1909H189.847L192.453 67.6517L195.052 60.1909ZM206.96 61.586H203.351V64.1734H206.543V65.5555H203.351V68.1298H206.96V69.5316H201.775V60.1906H206.96V61.586ZM212.53 69.5318V60.1909H214.087V69.5318H212.53ZM221.748 68.1301H224.816V69.5318H220.191V60.1909H221.748V68.1301ZM235.103 61.586H231.494V64.1734H234.686V65.5555H231.494V68.1298H235.103V69.5316H229.918V60.1906H235.103V61.586ZM240.673 69.5318V60.1909H243.852C246.757 60.1909 248.216 62.0904 248.216 64.8547C248.216 67.6255 246.757 69.5317 243.852 69.5317L240.673 69.5318ZM242.23 68.1301H243.787C245.689 68.1301 246.581 66.8921 246.581 64.8549C246.581 62.8308 245.689 61.5863 243.787 61.5863H242.23V68.1301Z" fill="#008080"/>
</g>
<defs>
<clipPath id="clip0_1_3">
<rect width="287" height="78" fill="white"/>
</clipPath>
</defs>
</svg>
